<svg xmlns="http://www.w3.org/2000/svg" viewBox="0 0 112 112" role="img" aria-label="CALL-E">
  <rect width="112" height="112" fill="#F9DD00"/>
  <path
    d="M60.8 18.2c-14.8-1.5-31.7 1.5-39.1 12.8-5.2 8-6 26.1-1.8 38.5 4.8 14.1 16.4 19.2 39.6 19.2.1 4.1-.2 7.5.9 10.2.8 2.1 2.8 3.1 5.2 1.8 19.1-9.9 28.9-24.5 28.9-44.9 0-22.1-11-35.1-33.7-37.6z"
    fill="none"
    stroke="#050505"
    stroke-width="4.5"
    stroke-linecap="round"
    stroke-linejoin="round"
  />
  <path
    d="M51.8 39.1c-.8 3.7-1.1 7.8-1.5 11.3"
    fill="none"
    stroke="#050505"
    stroke-width="4.5"
    stroke-linecap="round"
  />
  <path
    d="M68 39.8c-.3 3.8-.7 7.7-1.2 11.5"
    fill="none"
    stroke="#050505"
    stroke-width="4.5"
    stroke-linecap="round"
  />
  <path
    d="M47.2 63.5c5.1 3.6 11 5.1 17.2 4.7"
    fill="none"
    stroke="#050505"
    stroke-width="4.2"
    stroke-linecap="round"
  />
</svg>
